<svg width="45" height="45" viewBox="0 0 45 45" fill="none" xmlns="http://www.w3.org/2000/svg">
<path fill-rule="evenodd" clip-rule="evenodd" d="M37.9194 41.6547C37.1781 41.8864 36.3894 41.4733 36.1578 40.7319L32.7037 29.6792C32.1534 27.918 30.5223 26.7188 28.6771 26.7188H16.323C14.4777 26.7188 12.8466 27.9179 12.2962 29.6792L8.84225 40.7319C8.61059 41.4733 7.82185 41.8864 7.08056 41.6547C6.33926 41.4231 5.92612 40.6343 6.15777 39.8931L9.61179 28.8403C10.529 25.9049 13.2476 23.9062 16.323 23.9062H28.6771C31.7525 23.9062 34.4709 25.9049 35.3883 28.8403L38.8422 39.8931C39.0739 40.6343 38.6608 41.4231 37.9194 41.6547Z" fill="white"/>
<path fill-rule="evenodd" clip-rule="evenodd" d="M22.5 7.03125C19.1345 7.03125 16.4062 9.75947 16.4062 13.125C16.4062 16.4905 19.1345 19.2188 22.5 19.2188C25.8655 19.2188 28.5938 16.4905 28.5938 13.125C28.5938 9.75947 25.8655 7.03125 22.5 7.03125ZM13.5938 13.125C13.5938 8.20621 17.5812 4.21875 22.5 4.21875C27.4188 4.21875 31.4062 8.20621 31.4062 13.125C31.4062 18.0438 27.4188 22.0312 22.5 22.0312C17.5812 22.0312 13.5938 18.0438 13.5938 13.125Z" fill="white"/>
<path fill-rule="evenodd" clip-rule="evenodd" d="M10.7812 40.3125C10.7812 39.5359 11.4109 38.9062 12.1875 38.9062H32.8125C33.5891 38.9062 34.2188 39.5359 34.2188 40.3125C34.2188 41.0891 33.5891 41.7188 32.8125 41.7188H12.1875C11.4109 41.7188 10.7812 41.0891 10.7812 40.3125Z" fill="white"/>
<path fill-rule="evenodd" clip-rule="evenodd" d="M33.2812 9.375C33.2812 8.59835 33.9109 7.96875 34.6875 7.96875H42.1875C42.9641 7.96875 43.5938 8.59835 43.5938 9.375C43.5938 10.1516 42.9641 10.7812 42.1875 10.7812H34.6875C33.9109 10.7812 33.2812 10.1516 33.2812 9.375Z" fill="white"/>
<path fill-rule="evenodd" clip-rule="evenodd" d="M38.4375 4.21875C39.2141 4.21875 39.8438 4.84835 39.8438 5.625V13.125C39.8438 13.9016 39.2141 14.5312 38.4375 14.5312C37.6609 14.5312 37.0312 13.9016 37.0312 13.125V5.625C37.0312 4.84835 37.6609 4.21875 38.4375 4.21875Z" fill="white"/>
</svg>
