<svg width="45" height="45" viewBox="0 0 45 45" fill="none" xmlns="http://www.w3.org/2000/svg">
<g clip-path="url(#clip0_3936_2435)">
<path d="M27.1875 39.375H19.6875C17.1037 39.375 15 37.2713 15 34.6875V30.9375C15 30.42 15.42 30 15.9375 30C16.455 30 16.875 30.42 16.875 30.9375V34.6875C16.875 36.2381 18.1369 37.5 19.6875 37.5H27.1875C27.705 37.5 28.125 37.92 28.125 38.4375C28.125 38.955 27.705 39.375 27.1875 39.375Z" fill="white"/>
<path d="M19.6875 20.625H0.9375C0.42 20.625 0 20.205 0 19.6875C0 19.17 0.42 18.75 0.9375 18.75H19.6875C20.205 18.75 20.625 19.17 20.625 19.6875C20.625 20.205 20.205 20.625 19.6875 20.625Z" fill="white"/>
<path d="M30 45C27.9319 45 26.25 43.3181 26.25 41.25V7.5C26.25 5.8875 27.285 4.46063 28.8244 3.94688L40.0744 0.196875C40.4306 0.069375 40.8337 0 41.25 0C43.3181 0 45 1.68187 45 3.75V37.5C45 39.1106 43.9669 40.5394 42.4275 41.0512L31.1775 44.8012C30.8156 44.9306 30.4125 45 30 45ZM41.25 1.875C41.055 1.875 40.86 1.90875 40.6875 1.96875L29.4169 5.72625C28.6425 5.98312 28.125 6.69562 28.125 7.5V41.25C28.125 42.2831 28.9669 43.125 30 43.125C30.195 43.125 30.39 43.0912 30.5662 43.0294L41.835 39.2738C42.6056 39.015 43.125 38.3025 43.125 37.5V3.75C43.125 2.71688 42.2831 1.875 41.25 1.875Z" fill="white"/>
<path d="M15.9375 9.375C15.42 9.375 15 8.955 15 8.4375V4.6875C15 2.10375 17.1037 0 19.6875 0H41.25C41.7675 0 42.1875 0.42 42.1875 0.9375C42.1875 1.455 41.7675 1.875 41.25 1.875H19.6875C18.1369 1.875 16.875 3.13687 16.875 4.6875V8.4375C16.875 8.955 16.455 9.375 15.9375 9.375Z" fill="white"/>
<path d="M12.1875 28.1251C11.9475 28.1251 11.7075 28.0332 11.5237 27.8513C11.1581 27.4857 11.1581 26.8913 11.5237 26.5257L18.3619 19.6876L11.5237 12.8513C11.1581 12.4857 11.1581 11.8913 11.5237 11.5257C11.8894 11.1601 12.4837 11.1601 12.8494 11.5257L20.3494 19.0257C20.715 19.3913 20.715 19.9857 20.3494 20.3513L12.8494 27.8513C12.6675 28.0332 12.4275 28.1251 12.1875 28.1251Z" fill="white"/>
</g>
<defs>
<clipPath id="clip0_3936_2435">
<rect width="45" height="45" fill="white"/>
</clipPath>
</defs>
</svg>
